<svg aria-hidden="true" style="position:absolute;width:0;height:0;overflow:hidden" xmlns="http://www.w3.org/2000/svg">
  <defs>
    <symbol id="phone-icon" viewBox="0 0 32 32">
      <path d="M2.56 6.4A3.84 3.84 0 0 1 6.4 2.56h1.756a2.4 2.4 0 0 1 2.328 1.818l1.415 5.662a2.4 2.4 0 0 1-.888 2.502l-1.656 1.242c-.172.129-.209.318-.161.45a14.445 14.445 0 0 0 8.573 8.573c.132.048.321.011.45-.161l1.242-1.656a2.399 2.399 0 0 1 2.502-.888l5.662 1.415a2.4 2.4 0 0 1 1.818 2.328v1.756a3.84 3.84 0 0 1-3.84 3.84h-2.88c-11.134 0-20.16-9.026-20.16-20.16v-2.88z"/>
    </symbol>
    <symbol id="mail-icon" viewBox="0 0 31 32">
      <path d="M1.92 11.736V22.72a3.84 3.84 0 0 0 3.84 3.84h19.2a3.84 3.84 0 0 0 3.84-3.84V11.736l-11.427 7.032a3.842 3.842 0 0 1-4.025 0L1.921 11.736z"/>
      <path d="M28.8 9.482V9.28a3.84 3.84 0 0 0-3.84-3.84H5.76a3.84 3.84 0 0 0-3.84 3.84v.202l12.434 7.652c.617.38 1.395.38 2.012 0L28.8 9.482z"/>
    </symbol>
    <symbol id="linkedin-icon" viewBox="0 0 32 32">
      <path d="M29.631 0H2.362C1.056 0 0 1.031 0 2.306v27.381c0 1.275 1.056 2.312 2.362 2.312h27.269c1.306 0 2.369-1.037 2.369-2.306V2.306C32 1.031 30.937 0 29.631 0zM9.494 27.269h-4.75V11.994h4.75v15.275zM7.119 9.912a2.751 2.751 0 1 1 0-5.5 2.75 2.75 0 1 1 0 5.5zm20.15 17.357h-4.744v-7.425c0-1.769-.031-4.05-2.469-4.05-2.469 0-2.844 1.931-2.844 3.925v7.55h-4.737V11.994h4.55v2.088h.063c.631-1.2 2.181-2.469 4.488-2.469 4.806 0 5.694 3.162 5.694 7.275v8.381z"/>
    </symbol>
    <symbol id="twitter-icon" viewBox="0 0 32 32">
      <path d="M10.067 29c12.072 0 18.677-10.004 18.677-18.677 0-.281-.006-.569-.019-.85a13.31 13.31 0 0 0 3.274-3.399c-1.197.532-2.467.88-3.768 1.031a6.598 6.598 0 0 0 2.887-3.631 13.2 13.2 0 0 1-4.168 1.593 6.57 6.57 0 0 0-7.888-1.291 6.572 6.572 0 0 0-3.304 7.278A18.65 18.65 0 0 1 2.229 4.199c-.838 1.445-1.095 3.155-.717 4.782s1.36 3.05 2.748 3.979a6.57 6.57 0 0 1-2.974-.819v.081a6.56 6.56 0 0 0 5.268 6.438 6.518 6.518 0 0 1-2.962.112 6.583 6.583 0 0 0 6.13 4.563 13.168 13.168 0 0 1-9.723 2.716A18.625 18.625 0 0 0 10.066 29z"/>
    </symbol>
    <symbol id="facebook-icon" viewBox="0 0 32 32">
      <path d="M32 16c0-8.837-7.163-16-16-16S0 7.163 0 16c0 7.986 5.851 14.605 13.5 15.806V20.625H9.437V16H13.5v-3.525c0-4.01 2.389-6.225 6.043-6.225 1.75 0 3.582.313 3.582.313v3.938h-2.017c-1.988 0-2.608 1.233-2.608 2.5v3h4.437l-.709 4.625H18.5v11.181c7.649-1.2 13.5-7.82 13.5-15.806z"/>
    </symbol>
    <symbol id="icon-logo" viewBox="0 0 33 32">
      <path d="M5.045 0h23.19a4.48 4.48 0 0 1 4.48 4.48v23.04a4.48 4.48 0 0 1-4.48 4.48H5.045a4.48 4.48 0 0 1-4.48-4.48V4.48A4.48 4.48 0 0 1 5.045 0z"/>
      <path d="m8.107 10.972 8.533 5.029v9.6l-8.533-4.876v-9.752z"/>
      <path d="M17.393 15.993v8.309l7.027-4.016v-8.435l-7.027 4.141zm7.781 4.731L16.641 25.6V16l-8.533-5.029L16.641 6.4l8.533 4.571v9.752zm-1.148-9.513L16.64 7.254l-6.997 3.748 7.368 4.342 7.015-4.134z"/>
    </symbol>
    <symbol id="crown-icon" viewBox="0 0 38 32">
      <path d="m7.591 24.135.426 1.702c.539 2.213 1.716 3.348 4.057 3.348h15.277c2.355 0 3.518-1.106 4.071-3.348l.426-1.702H7.592zm-.468-1.943h25.206l2.667-10.922-1.163-.667-6.539 4.766c-.482.341-.808.213-1.078-.17L20.06 5.894l-.681-.028-6.213 9.376c-.241.369-.525.482-1.007.142l-6.411-4.681-1.362.355 2.738 11.135zM4.91 14.107c1.872 0 3.376-1.518 3.376-3.404 0-1.844-1.504-3.376-3.376-3.376s-3.39 1.518-3.39 3.376a3.402 3.402 0 0 0 3.39 3.404zm14.809-5.901a3.387 3.387 0 0 0 3.376-3.39c0-1.844-1.518-3.376-3.376-3.376a3.378 3.378 0 0 0-3.39 3.376 3.39 3.39 0 0 0 3.39 3.39zm14.794 5.901a3.402 3.402 0 0 0 3.39-3.404 3.387 3.387 0 0 0-3.39-3.376c-1.858 0-3.376 1.532-3.376 3.376 0 1.887 1.518 3.404 3.376 3.404z"/>
    </symbol>
    <symbol id="lightning-icon" viewBox="0 0 26 32">
      <path d="M13.585 31.762c.241 0 .618-.091.995-.287 8.579-4.493 11.338-6.739 11.338-12.152V7.955c0-1.553-.663-2.05-1.93-2.578-1.764-.724-7.403-2.774-9.152-3.377-.407-.136-.829-.211-1.251-.211s-.844.09-1.236.211c-1.764.573-7.403 2.669-9.167 3.377-1.251.513-1.93 1.025-1.93 2.578v11.368c0 5.413 2.91 7.403 11.338 12.152.392.211.754.287.995.287zm-6.8-14.489c0-.181.09-.407.256-.603l8.518-10.69c.648-.814 1.734-.271 1.342.739l-2.804 7.538h5.262c.407 0 .709.286.709.694 0 .181-.09.407-.256.603l-8.518 10.69c-.648.814-1.719.271-1.342-.724l2.819-7.554H7.494c-.392 0-.709-.286-.709-.694z"/>
    </symbol>
    <symbol id="people-icon" viewBox="0 0 46 32">
      <path d="M18.155 28.401H34.59c2.053 0 2.785-.579 2.785-1.711 0-3.32-4.223-7.9-11.009-7.9-6.773 0-10.996 4.58-10.996 7.9 0 1.132.732 1.711 2.785 1.711zm8.224-11.914c2.811 0 5.23-2.47 5.23-5.687 0-3.178-2.432-5.533-5.23-5.533s-5.23 2.406-5.23 5.558c0 3.191 2.419 5.661 5.23 5.661zM4.035 28.401h9.937c-1.36-1.943.301-5.854 3.112-7.99-1.451-.952-3.321-1.66-5.766-1.66-5.897 0-9.584 4.285-9.584 7.849 0 1.158.654 1.801 2.301 1.801zm7.295-11.618c2.432 0 4.55-2.162 4.55-4.954 0-2.766-2.131-4.812-4.55-4.812-2.432 0-4.576 2.097-4.563 4.838 0 2.766 2.118 4.928 4.563 4.928zm24.724-.682c.445.296 1.059.206 1.412-.296 1.007-1.3 1.608-3.216 1.608-5.185s-.602-3.873-1.608-5.185c-.353-.502-.967-.592-1.412-.296-.523.36-.614 1.004-.196 1.531.758 1.029 1.19 2.457 1.19 3.95s-.445 2.908-1.19 3.95c-.405.54-.327 1.158.196 1.531zm4.851 3.358c.484.322 1.085.206 1.438-.283 1.674-2.265 2.654-5.378 2.654-8.556s-.967-6.317-2.654-8.556c-.353-.489-.954-.605-1.438-.283s-.562.926-.183 1.454c1.425 1.981 2.249 4.645 2.249 7.385s-.85 5.391-2.249 7.385c-.366.528-.301 1.132.183 1.454z"/>
    </symbol>
    <symbol id="medal-icon" viewBox="0 0 28 32">
      <path d="M13.648 31.976c4.927 0 8.902-3.975 8.902-8.888a8.889 8.889 0 0 0-8.902-8.902c-4.913 0-8.888 3.975-8.888 8.902a8.883 8.883 0 0 0 8.888 8.888zm-2.533-4.311c-.532.392-1.092-.014-.882-.63l1.008-3.009-2.575-1.833c-.49-.364-.336-1.05.336-1.05l3.163.028.966-3.023c.196-.616.868-.616 1.064 0l.966 3.023 3.163-.028c.672 0 .812.7.336 1.036l-2.575 1.847 1.008 3.009c.21.616-.35 1.022-.882.63l-2.547-1.862-2.547 1.862zM5.124 16.426a10.893 10.893 0 0 1 5.431-3.695L4.215 1.338.534 6.951c-.252.364-.266.77-.042 1.134l4.633 8.342zm5.389-8.468h6.284L21.066.4H6.244l4.269 7.558zm6.242 4.773a10.833 10.833 0 0 1 5.431 3.695l4.647-8.342c.21-.364.196-.77-.056-1.134l-3.681-5.613-6.34 11.393z"/>
    </symbol>
    <symbol id="battery-icon" viewBox="0 0 43 32">
      <path d="M15.885 19.154c0-.163.083-.31.217-.473l6.881-8.461c.516-.652 1.383-.212 1.083.587l-2.266 5.95h4.249c.317 0 .6.244.6.538a.71.71 0 0 1-.233.489l-6.865 8.444c-.517.652-1.4.212-1.1-.57l2.283-5.967h-4.265c-.317 0-.583-.228-.583-.538zM6.921 30.989h28.825c3.499 0 5.232-1.679 5.232-5.037V10.188c0-3.358-1.733-5.037-5.232-5.037h-2.299V2.967c0-1.239-.733-1.989-2.016-1.989h-4.915c-1.266 0-1.999.75-1.999 1.989v2.184h-6.348V2.967c0-1.239-.733-1.989-2.016-1.989h-4.915c-1.283 0-1.999.75-1.999 1.989v2.184H6.923c-3.482 0-5.232 1.679-5.232 5.037v15.764c0 3.358 1.75 5.037 5.232 5.037z"/>
    </symbol>
    <symbol id="puzzle-icon" viewBox="0 0 32 32">
      <path d="M15 7.116c0-.474-.248-.902-.535-1.278A2.195 2.195 0 0 1 14 4.5C14 3.119 15.343 2 17 2s3 1.119 3 2.5c0 .492-.171.951-.465 1.338-.287.377-.535.805-.535 1.278 0 .443.37.797.813.771a63.022 63.022 0 0 0 7.51-.901.998.998 0 0 1 1.17.86c.299 2.386.468 4.812.501 7.27a.876.876 0 0 1-.879.885c-.474 0-.902-.248-1.278-.535a2.195 2.195 0 0 0-1.338-.465c-1.381 0-2.5 1.343-2.5 3s1.119 3 2.5 3c.492 0 .951-.171 1.338-.465.377-.287.805-.535 1.278-.535.414 0 .743.349.713.762a65.005 65.005 0 0 1-.793 6.46 1 1 0 0 1-.814.814c-2.425.422-4.897.71-7.406.855a.772.772 0 0 1-.815-.774c0-.474.248-.902.535-1.278.295-.387.465-.846.465-1.337 0-1.381-1.343-2.5-3-2.5s-3 1.119-3 2.5c0 .492.171.951.465 1.337.287.377.535.805.535 1.278a.856.856 0 0 1-.877.858 65.604 65.604 0 0 1-6.278-.48 1.001 1.001 0 0 1-.86-1.17c.391-2.152.672-4.342.838-6.565a.707.707 0 0 0-.708-.758c-.474 0-.902.248-1.278.535a2.195 2.195 0 0 1-1.338.465c-1.381 0-2.5-1.343-2.5-3s1.119-3 2.5-3c.492 0 .951.171 1.338.465.377.287.805.535 1.278.535a.874.874 0 0 0 .878-.884 63.65 63.65 0 0 0-.414-6.427 1 1 0 0 1 1.108-1.108c1.79.207 3.602.339 5.435.392a.854.854 0 0 0 .876-.857z"/>
    </symbol>
    <symbol id="paint-icon" viewBox="0 0 32 32">
      <path d="M27.465 2c-.501 0-.99.148-1.406.426l-6.772 4.515a24.973 24.973 0 0 0-4.701 4.062 13.281 13.281 0 0 1 6.412 6.412 24.973 24.973 0 0 0 4.062-4.701l4.515-6.772a2.535 2.535 0 0 0-2.109-3.941zM16.399 20.7a25.14 25.14 0 0 0 2.614-1.672 10.805 10.805 0 0 0-6.04-6.041 24.93 24.93 0 0 0-1.672 2.614l-.371.668a7.014 7.014 0 0 1 4.802 4.802l.668-.371zM9 18a5 5 0 0 0-5 5 2 2 0 0 1-2.135 1.996 1.001 1.001 0 0 0-.932 1.497A7 7 0 0 0 14 23a5 5 0 0 0-5-5z"/>
    </symbol>
    <symbol id="adobe-icon" viewBox="0 0 89 32">
      <path d="M9.823 4H.066v23.333L9.823 4zM16.689 4h9.744v23.333L16.689 4zM13.255 12.6l6.21 14.734h-4.074l-1.856-4.691H8.99L13.255 12.6zM42.349 18.838l1.15 3.299c.038.083.095.121.197.121h2.212c.121 0 .14-.057.121-.178l-4.57-12.693c-.019-.102-.038-.121-.14-.121h-2.746c-.076 0-.121.057-.121.14-.038.667-.095.871-.178 1.068L34.2 22.061c-.019.14.025.197.14.197h1.977c.121 0 .178-.038.222-.159l1.087-3.261h4.723zm-4.093-2.155c.597-1.805 1.386-4.119 1.703-5.441h.019c.394 1.386 1.322 4.131 1.742 5.441h-3.464zM51.904 22.454a9.37 9.37 0 0 0 3.737-.769c.102-.038.121-.083.121-.178a13.26 13.26 0 0 1-.083-1.265V8.292c0-.076 0-.114-.095-.114h-2.155c-.083 0-.121.038-.121.14v4.049a7.112 7.112 0 0 0-.852-.057c-3.477 0-5.612 2.295-5.612 5.161 0 3.324 2.193 4.983 5.059 4.983zm1.405-2.212c-.356.114-.75.159-1.15.159-1.576 0-2.867-.89-2.867-3.051 0-1.913 1.328-3.045 3.089-3.045.356 0 .667.038.928.14v5.797zM62.636 12.309c-2.968 0-4.805 2.276-4.805 5.085 0 2.511 1.462 5.06 4.761 5.06 2.79 0 4.748-2.053 4.748-5.123 0-2.708-1.659-5.021-4.704-5.021zm-.121 1.996c1.678 0 2.39 1.443 2.39 3.089 0 2.034-1.049 3.045-2.269 3.045-1.506 0-2.396-1.265-2.396-3.089 0-1.875.947-3.045 2.276-3.045zM69.568 8.178c-.083 0-.14.038-.14.14v13.526c0 .057.057.159.14.178.947.292 1.939.432 2.962.432 2.93 0 5.778-1.818 5.778-5.479 0-2.651-1.818-4.665-4.665-4.665a5.71 5.71 0 0 0-1.799.28l-.025-4.252c0-.14-.038-.159-.178-.159h-2.072zm6.305 9.039c0 2.193-1.5 3.223-3.121 3.223-.337 0-.636-.019-.909-.102v-5.771c.311-.121.686-.222 1.379-.222 1.564 0 2.65.992 2.65 2.873zM86.349 17.928c.966 0 1.761-.019 2.034-.083.102-.019.14-.057.158-.14.058-.216.083-.667.083-1.22 0-1.881-1.132-4.176-4.055-4.176-2.988 0-4.647 2.434-4.647 5.18 0 2.434 1.284 4.964 4.882 4.964 1.347 0 2.218-.216 2.968-.572.076-.038.114-.102.114-.216v-1.646c0-.095-.057-.114-.114-.076a6.204 6.204 0 0 1-2.454.477c-2.014 0-2.93-1.112-2.987-2.492h4.017zm-4.017-1.703c.159-.966.769-2.015 2.136-2.015 1.506 0 1.9 1.265 1.9 1.837v.159c-.082.019-.337.019-1.086.019h-2.95z"/>
    </symbol>
    <symbol id="amazon-icon" viewBox="0 0 74 32">
      <path d="M45.822 25.204c-4.242 3.127-10.391 4.795-15.686 4.795-7.423 0-14.106-2.746-19.162-7.312-.397-.359-.041-.848.435-.569 5.456 3.175 12.203 5.084 19.172 5.084 4.7 0 9.87-.972 14.624-2.99.718-.305 1.319.47.616.992z"/>
      <path d="M47.586 23.186c-.54-.693-3.584-.327-4.951-.165-.416.051-.48-.311-.105-.572 2.425-1.706 6.403-1.214 6.867-.642.464.575-.121 4.563-2.399 6.467-.35.292-.683.137-.528-.251.512-1.278 1.659-4.141 1.115-4.837zM42.731 10.402V8.743c0-.251.191-.419.419-.419h7.427c.238 0 .429.172.429.419v1.42c-.003.238-.203.55-.559 1.042l-3.848 5.494c1.43-.035 2.939.178 4.236.909.292.165.372.407.394.645v1.77c0 .242-.267.524-.547.378-2.285-1.198-5.32-1.328-7.846.013-.257.14-.528-.14-.528-.381v-1.681c0-.27.003-.731.273-1.141l4.458-6.394h-3.88c-.238 0-.429-.168-.429-.416zM15.641 20.753h-2.259a.427.427 0 0 1-.404-.384V8.773c0-.232.194-.416.435-.416h2.107c.219.01.394.178.41.388v1.516h.041c.55-1.465 1.583-2.148 2.974-2.148 1.414 0 2.298.683 2.933 2.148.547-1.465 1.789-2.148 3.121-2.148.947 0 1.983.391 2.615 1.268.715.976.569 2.393.569 3.635l-.003 7.318a.426.426 0 0 1-.435.419h-2.256a.43.43 0 0 1-.407-.419v-6.146c0-.489.044-1.71-.064-2.174-.168-.779-.674-.998-1.328-.998-.547 0-1.119.365-1.351.95s-.21 1.564-.21 2.221v6.146a.426.426 0 0 1-.435.419h-2.256a.427.427 0 0 1-.407-.419l-.003-6.146c0-1.293.213-3.197-1.392-3.197-1.624 0-1.56 1.856-1.56 3.197v6.146a.426.426 0 0 1-.435.419zM57.4 8.111c3.353 0 5.167 2.879 5.167 6.54 0 3.537-2.005 6.343-5.167 6.343-3.292 0-5.084-2.879-5.084-6.467 0-3.61 1.815-6.416 5.084-6.416zm.019 2.368c-1.665 0-1.77 2.269-1.77 3.683 0 1.417-.022 4.443 1.751 4.443 1.751 0 1.834-2.441 1.834-3.928 0-.979-.041-2.148-.337-3.076-.254-.807-.759-1.122-1.478-1.122zM66.915 20.753h-2.25a.43.43 0 0 1-.407-.419l-.003-11.599a.427.427 0 0 1 .435-.378h2.094c.197.01.359.143.404.324v1.773h.041c.632-1.586 1.519-2.342 3.079-2.342 1.014 0 2.002.365 2.638 1.366.591.928.591 2.488.591 3.61v7.299a.434.434 0 0 1-.435.365h-2.266a.427.427 0 0 1-.4-.365v-6.298c0-1.268.146-3.124-1.414-3.124-.55 0-1.055.369-1.306.928-.318.709-.359 1.414-.359 2.196v6.244a.434.434 0 0 1-.442.419zM36.811 15.214v-.489c-1.637 0-3.362.35-3.362 2.275 0 .976.508 1.637 1.376 1.637.632 0 1.204-.391 1.563-1.026.445-.782.423-1.516.423-2.396zm2.279 5.507a.473.473 0 0 1-.534.054c-.75-.623-.887-.912-1.297-1.506-1.239 1.265-2.12 1.643-3.724 1.643-1.903 0-3.381-1.173-3.381-3.521 0-1.834.991-3.082 2.409-3.693 1.227-.54 2.94-.636 4.249-.785v-.292c0-.537.041-1.173-.276-1.637-.273-.416-.801-.588-1.268-.588-.861 0-1.627.442-1.814 1.357-.038.203-.188.404-.394.413l-2.19-.235c-.184-.041-.391-.191-.337-.474C31.035 8.8 33.437 8 35.586 8c1.1 0 2.536.292 3.403 1.125 1.1 1.026.995 2.396.995 3.886v3.521c0 1.058.438 1.522.852 2.094.143.203.175.448-.01.601-.461.385-1.281 1.1-1.732 1.5l-.003-.006zM7.191 15.214v-.489c-1.633 0-3.359.35-3.359 2.275 0 .976.505 1.637 1.373 1.637.636 0 1.204-.391 1.563-1.026.445-.782.423-1.516.423-2.396zm2.278 5.507a.473.473 0 0 1-.534.054c-.75-.623-.883-.912-1.297-1.506-1.239 1.265-2.116 1.643-3.724 1.643-1.9 0-3.381-1.173-3.381-3.521 0-1.834.995-3.082 2.409-3.693 1.227-.54 2.939-.636 4.249-.785v-.292c0-.537.041-1.173-.273-1.637-.276-.416-.804-.588-1.268-.588-.861 0-1.63.442-1.818 1.357-.038.203-.188.404-.391.413l-2.193-.235c-.184-.041-.388-.191-.337-.474C1.416 8.8 3.816 8 5.964 8c1.1 0 2.536.292 3.403 1.125 1.1 1.026.995 2.396.995 3.886v3.521c0 1.058.439 1.522.852 2.094.146.203.178.448-.006.601-.461.384-1.281 1.1-1.732 1.5l-.006-.006z"/>
    </symbol>
    <symbol id="slack-icon" viewBox="0 0 81 32">
      <path d="m25.35 21.62.979-2.288c1.072.794 2.469 1.214 3.868 1.214 1.025 0 1.677-.397 1.677-1.003-.023-1.681-6.174-.374-6.221-4.599-.023-2.148 1.887-3.805 4.59-3.805 1.607 0 3.215.397 4.357 1.308l-.915 2.336c-1.05-.675-2.347-1.146-3.582-1.146-.839 0-1.398.397-1.398.911.023 1.657 6.221.747 6.291 4.786 0 2.194-1.864 3.735-4.52 3.735-1.957 0-3.751-.467-5.126-1.448zm38.972-3.116a2.844 2.844 0 0 1-2.474 1.447c-1.57 0-2.842-1.275-2.842-2.848a2.845 2.845 0 0 1 4.275-2.46c.435.254.794.62 1.041 1.059l2.721-1.51a5.947 5.947 0 0 0-5.196-3.053c-3.288 0-5.953 2.67-5.953 5.965s2.665 5.965 5.953 5.965a5.952 5.952 0 0 0 5.196-3.053l-2.721-1.51zm-27.56 4.33h3.402V6.173h-3.401v16.661zM68.761 6.173v16.661h3.402v-4.992l4.031 4.992h4.348l-5.126-5.93 4.753-5.533h-4.162l-3.844 4.6V6.173h-3.402zm-18.117 5.198v1.354c-.559-.934-1.934-1.588-3.378-1.588-2.982 0-5.335 2.638-5.335 5.953s2.353 5.976 5.335 5.976c1.445 0 2.819-.654 3.378-1.588v1.354h3.402V11.369h-3.402zm0 7.156c-.489.817-1.514 1.424-2.656 1.424-1.57 0-2.843-1.275-2.843-2.848s1.272-2.848 2.843-2.848c1.141 0 2.167.63 2.656 1.47v2.802zM7.386 5.803a1.999 1.999 0 0 0-1.845 2.765 1.999 1.999 0 0 0 1.844 1.236h1.996v-2a2 2 0 0 0-1.996-2zm0 5.333H2.063c-1.102 0-1.996.896-1.996 2s.894 2 1.996 2h5.323c1.102 0 1.996-.896 1.996-2s-.894-2-1.996-2zM20.027 13.136c0-1.105-.894-2-1.996-2s-1.996.896-1.996 2v2h1.996a2 2 0 0 0 1.996-2zm-5.323 0V7.803a2 2 0 0 0-1.996-2 1.999 1.999 0 0 0-1.996 2v5.333c0 1.105.894 2.001 1.996 2.001a2 2 0 0 0 1.996-2zM12.708 25.803a2 2 0 0 0 0-4h-1.996v2c0 1.104.894 2 1.996 2zm0-5.333h5.323a1.999 1.999 0 0 0 1.412-3.413 2 2 0 0 0-1.412-.587h-5.323a1.999 1.999 0 0 0-1.845 2.765 1.999 1.999 0 0 0 1.844 1.236zM.067 18.47a2.01 2.01 0 0 0 .583 1.414 1.99 1.99 0 0 0 1.412.587 1.995 1.995 0 0 0 1.996-2v-2H2.062a1.999 1.999 0 0 0-1.996 2zm5.323 0v5.333c0 1.105.894 2 1.996 2a2 2 0 0 0 1.996-2V18.47a2.01 2.01 0 0 0-.584-1.414 1.99 1.99 0 0 0-1.412-.587 1.999 1.999 0 0 0-1.996 2z"/>
    </symbol>
    <symbol id="zoom-icon" viewBox="0 0 66 32">
      <path d="M53.671 13.733a2.942 2.942 0 0 0-2.538-1.465 2.939 2.939 0 0 0-2.538 1.462c-.25.434-.327.92-.358 1.474l-.036.734v5.131l-.039.735c-.048 1.218-.935 2.081-2.162 2.162l-.734.036V9.336c.734 0 2.012.37 2.583 1.008a5.863 5.863 0 0 1 7.686.98 5.86 5.86 0 0 1 8.548-.269 5.866 5.866 0 0 1 1.718 4.148v8.798l-.731-.036c-1.213-.069-2.091-.956-2.166-2.162l-.036-.735v-5.133l-.036-.732c-.03-.538-.108-1.037-.357-1.468a2.934 2.934 0 0 0-2.535-1.469 2.921 2.921 0 0 0-2.539 1.46c-.253.433-.334.932-.364 1.477l-.036.734v8.064l-.731-.036c-1.209-.076-2.094-.962-2.166-2.162l-.036-.735v-5.131l-.035-.734c-.027-.551-.109-1.04-.358-1.471zM3.466 23.966v-.001c-1.218-.078-2.091-.953-2.163-2.162l-.036-.734 8.798-8.801H3.466l-.735-.036c-1.2-.069-2.066-.969-2.162-2.163l-.036-.734 10.999.003.734.033c1.216.067 2.106.947 2.163 2.165l.036.731-8.798 8.801h6.599l.734.036c1.21.079 2.064.959 2.163 2.165l.036.732H4.2l-.734-.035zm38.92-12.484v.001a7.338 7.338 0 0 0-10.373-.001A7.333 7.333 0 0 0 37.2 24a7.338 7.338 0 0 0 6.777-4.526 7.324 7.324 0 0 0 0-5.612 7.333 7.333 0 0 0-1.59-2.379zm-2.075 2.077a4.401 4.401 0 0 1-6.223 6.224 4.401 4.401 0 0 1 6.223-6.224zM21.804 9.335h-.009a7.341 7.341 0 0 0-5.182 2.147A7.333 7.333 0 0 0 21.8 24a7.332 7.332 0 1 0 .005-14.666zm3.107 4.223a4.402 4.402 0 0 1 0 6.224 4.4 4.4 0 1 1 0-6.223v-.001z"/>
    </symbol>
    <symbol id="spotify-icon" viewBox="0 0 94 32">
      <path d="M14.183 2.053c-7.732 0-14 6.268-14 14s6.268 14 14 14c7.733 0 14-6.268 14-14S21.915 2.054 14.182 2.054v-.001zm6.421 20.192a.872.872 0 0 1-1.2.289c-3.287-2.008-7.425-2.463-12.299-1.349a.873.873 0 0 1-.389-1.702c5.333-1.218 9.908-.694 13.598 1.561a.872.872 0 0 1 .289 1.2zm1.713-3.812a1.091 1.091 0 0 1-1.501.36c-3.763-2.313-9.5-2.983-13.951-1.632a1.093 1.093 0 0 1-1.362-.727 1.093 1.093 0 0 1 .728-1.361c5.085-1.543 11.405-.795 15.727 1.86.513.316.675.988.359 1.501zm.147-3.97c-4.512-2.68-11.957-2.927-16.265-1.619a1.31 1.31 0 1 1-.76-2.506c4.945-1.501 13.167-1.211 18.361 1.873a1.31 1.31 0 0 1-1.336 2.252h-.001zm15.809.514c-2.417-.576-2.847-.981-2.847-1.831 0-.803.756-1.344 1.881-1.344 1.09 0 2.17.41 3.304 1.255a.153.153 0 0 0 .119.029.158.158 0 0 0 .105-.064l1.18-1.664a.159.159 0 0 0-.03-.215c-1.349-1.082-2.867-1.608-4.643-1.608-2.61 0-4.434 1.566-4.434 3.807 0 2.403 1.573 3.254 4.292 3.911 2.312.533 2.703.979 2.703 1.777 0 .884-.789 1.434-2.06 1.434-1.411 0-2.563-.476-3.85-1.59a.164.164 0 0 0-.115-.038.156.156 0 0 0-.109.055l-1.324 1.575a.16.16 0 0 0 .015.221c1.498 1.337 3.34 2.043 5.33 2.043 2.812 0 4.629-1.536 4.629-3.915.005-2.007-1.197-3.119-4.141-3.835l-.005-.002zm10.509-2.384c-1.219 0-2.218.48-3.044 1.464V12.95a.158.158 0 0 0-.157-.159h-2.165a.158.158 0 0 0-.157.159v12.305c0 .087.07.159.157.159h2.165a.158.158 0 0 0 .157-.159v-3.884c.826.925 1.826 1.378 3.044 1.378 2.265 0 4.559-1.744 4.559-5.077.003-3.334-2.29-5.078-4.557-5.078h-.002zm2.041 5.078c0 1.697-1.045 2.882-2.543 2.882-1.48 0-2.596-1.239-2.596-2.882s1.117-2.882 2.596-2.882c1.473 0 2.543 1.212 2.543 2.882zm8.394-5.078c-2.917 0-5.203 2.246-5.203 5.114 0 2.837 2.27 5.059 5.168 5.059 2.927 0 5.219-2.239 5.219-5.096 0-2.847-2.277-5.078-5.184-5.078zm0 7.976c-1.551 0-2.722-1.247-2.722-2.9 0-1.66 1.13-2.864 2.687-2.864 1.562 0 2.738 1.247 2.738 2.901 0 1.66-1.137 2.863-2.703 2.863zm11.414-7.778h-2.382v-2.435a.157.157 0 0 0-.157-.158h-2.165a.16.16 0 0 0-.159.158v2.435h-1.04a.158.158 0 0 0-.157.159v1.86c0 .087.07.159.157.159h1.04v4.814c0 1.944.968 2.931 2.879 2.931.776 0 1.419-.16 2.026-.505.05-.027.08-.08.08-.137V20.3a.158.158 0 0 0-.075-.134.154.154 0 0 0-.154-.007 2.732 2.732 0 0 1-1.271.306c-.694 0-1.005-.316-1.005-1.022v-4.474h2.382a.158.158 0 0 0 .157-.159v-1.86a.154.154 0 0 0-.156-.159l-.002-.001zm8.299.009v-.299c0-.88.338-1.272 1.094-1.272.451 0 .814.09 1.22.225a.158.158 0 0 0 .208-.151V9.479a.157.157 0 0 0-.112-.152 5.922 5.922 0 0 0-1.799-.258c-1.998 0-3.056 1.126-3.056 3.255v.458h-1.04a.16.16 0 0 0-.159.158v1.87a.16.16 0 0 0 .159.159h1.04v7.424c0 .089.072.159.159.159h2.163c.089 0 .159-.07.159-.159V14.97h2.022l3.096 7.423c-.351.779-.698.935-1.169.935-.381 0-.784-.114-1.194-.339a.178.178 0 0 0-.126-.012.158.158 0 0 0-.094.085l-.734 1.61a.159.159 0 0 0 .068.206c.766.415 1.457.592 2.311.592 1.598 0 2.482-.746 3.26-2.748l3.754-9.703a.152.152 0 0 0-.017-.147.154.154 0 0 0-.129-.069H87.76a.158.158 0 0 0-.15.106l-2.309 6.593-2.527-6.597a.159.159 0 0 0-.147-.102h-3.698zm-4.812-.009h-2.165a.16.16 0 0 0-.159.159v9.443c0 .089.072.159.159.159h2.165c.087 0 .159-.07.159-.159v-9.442a.159.159 0 0 0-.159-.159v-.001zm-1.07-4.3a1.552 1.552 0 1 0-.002 3.104 1.552 1.552 0 0 0 .002-3.104zm18.962 7.336c-.855 0-1.522-.688-1.522-1.523s.675-1.531 1.531-1.531c.856 0 1.523.688 1.523 1.522s-.676 1.532-1.532 1.532zm.008-2.903c-.781 0-1.371.62-1.371 1.38s.587 1.371 1.362 1.371c.781 0 1.371-.62 1.371-1.38s-.586-1.371-1.362-1.371zm.338 1.527.431.603h-.364l-.388-.553h-.333v.553h-.304v-1.599h.712c.373 0 .617.19.617.51.002.262-.15.422-.37.486h-.002zm-.258-.721h-.396v.506h.396c.198 0 .316-.097.316-.253 0-.165-.118-.253-.316-.253z"/>
    </symbol>
    <symbol id="zapier-icon" viewBox="0 0 65 32">
      <path d="m.401 23.597 6.57-10.223H1.18a5.955 5.955 0 0 1-.07-.975c0-.344.021-.659.07-.947h9.374l.119.316-6.619 10.244h6.205a6.664 6.664 0 0 1 0 1.921H.52l-.119-.336zM19.36 15.709c0-.961-.245-1.62-.729-1.998-.484-.372-1.192-.561-2.117-.561a8.77 8.77 0 0 0-1.592.133c-.498.091-.975.203-1.451.351-.309-.533-.463-1.178-.463-1.921a13.04 13.04 0 0 1 3.744-.561c1.62 0 2.854.372 3.702 1.108.841.736 1.269 1.921 1.269 3.541v7.811c-.568.126-1.255.266-2.068.4-.813.14-1.641.203-2.482.203-.792 0-1.514-.07-2.152-.217s-1.185-.379-1.634-.708c-.449-.322-.792-.736-1.038-1.241s-.365-1.115-.365-1.823c0-.694.14-1.311.428-1.837.28-.526.666-.968 1.157-1.311a5.007 5.007 0 0 1 1.683-.778 7.735 7.735 0 0 1 1.998-.259c.519 0 .947.014 1.276.035s.61.056.841.084v-.449h-.007zm0 2.363c-.245-.035-.554-.063-.926-.098s-.687-.049-.947-.049c-1.01 0-1.774.189-2.3.561s-.792.94-.792 1.704c0 .484.091.869.266 1.143s.4.484.666.631c.266.147.561.238.89.266.323.035.631.049.926.049.372 0 .757-.021 1.157-.063s.75-.098 1.059-.182v-3.961zM24.352 11.454c.161-.035.33-.056.498-.07a6.35 6.35 0 0 1 1.038 0c.175.014.351.042.512.07.014.035.035.133.063.301.021.168.049.351.07.547s.049.379.07.561c.021.182.035.294.035.344.161-.259.358-.512.582-.757s.498-.463.813-.659c.316-.196.673-.351 1.073-.463s.841-.168 1.325-.168c.729 0 1.409.119 2.033.365s1.157.617 1.606 1.129c.449.512.792 1.164 1.045 1.949s.379 1.718.379 2.79c0 2.146-.582 3.821-1.739 5.027-1.164 1.206-2.804 1.816-4.929 1.816-.358 0-.722-.021-1.094-.07s-.701-.112-.975-.196v5.721c-.196.035-.4.056-.624.07-.217.014-.421.021-.596.021s-.379-.007-.596-.021a6.371 6.371 0 0 1-.596-.07V11.455h.007zm2.411 10.439c.308.112.624.196.946.245s.743.07 1.269.07c.582 0 1.122-.091 1.606-.28s.904-.477 1.255-.862c.351-.393.624-.883.827-1.472s.301-1.297.301-2.103c0-1.297-.238-2.328-.715-3.092s-1.262-1.143-2.349-1.143c-.407 0-.792.07-1.171.217a2.846 2.846 0 0 0-.996.659c-.294.294-.526.659-.708 1.108s-.266.975-.266 1.592v5.062zM38.493 13.346h-1.585c-.035-.133-.056-.28-.07-.449a6.068 6.068 0 0 1 0-.996c.014-.168.042-.322.07-.449h3.947v12.487c-.175.035-.379.056-.596.07s-.421.021-.596.021c-.161 0-.351-.007-.575-.021a6.371 6.371 0 0 1-.596-.07V13.345zM46.038 18.289c.035 1.36.386 2.363 1.059 2.994s1.669.946 2.98.946c1.15 0 2.251-.203 3.288-.61.133.245.238.54.316.89.084.351.126.694.147 1.038a8.15 8.15 0 0 1-1.767.512c-.638.112-1.353.168-2.131.168-1.136 0-2.11-.161-2.924-.477s-1.479-.764-2.005-1.339a5.322 5.322 0 0 1-1.157-2.047c-.245-.785-.365-1.648-.365-2.594 0-.926.119-1.788.351-2.594s.596-1.5 1.08-2.096a5.19 5.19 0 0 1 1.837-1.409c.736-.351 1.613-.526 2.615-.526.862 0 1.613.147 2.265.442s1.192.694 1.634 1.206c.435.512.771 1.122.996 1.823.224.708.344 1.472.344 2.3 0 .224-.007.47-.028.715-.014.252-.035.47-.049.645H46.04v.014zm6.184-1.801c0-.456-.063-.89-.182-1.304s-.302-.771-.533-1.08c-.238-.309-.533-.554-.897-.743s-.799-.28-1.304-.28c-.989 0-1.746.301-2.279.897-.526.603-.848 1.437-.961 2.51h6.156zM57.263 11.453c.175-.035.351-.056.512-.07s.33-.021.512-.021c.175 0 .358.007.533.021s.344.042.484.07c.049.245.098.561.147.961s.07.736.07 1.01c.344-.554.792-1.031 1.353-1.437s1.276-.61 2.152-.61c.133 0 .266.007.4.014.14.007.252.021.351.035.035.147.056.301.07.463s.021.33.021.512c0 .196-.014.4-.035.61s-.056.414-.084.61a1.56 1.56 0 0 0-.4-.049h-.33c-.435 0-.855.063-1.255.182s-.757.336-1.073.645c-.316.308-.568.729-.757 1.269-.189.533-.28 1.227-.28 2.068v6.205c-.175.035-.379.056-.596.07s-.421.021-.596.021-.379-.007-.596-.021a8.085 8.085 0 0 1-.624-.07V11.454h.021zM43.149 4.105h-2.356l1.669-1.669a5.042 5.042 0 0 0-.435-.519 3.479 3.479 0 0 0-.519-.435l-1.669 1.669V.795a4.224 4.224 0 0 0-.673-.056h-.007c-.231 0-.456.021-.673.056v2.356l-1.669-1.669c-.182.133-.358.28-.519.435-.161.161-.302.33-.435.519l1.676 1.669h-2.356s-.056.442-.056.673.021.456.056.673h2.356L35.87 7.12c.259.365.582.687.954.954l1.669-1.669v2.356c.217.035.442.056.673.056h.007c.231 0 .456-.021.673-.056V6.405l1.669 1.669c.182-.133.358-.28.519-.435.161-.161.308-.33.435-.519L40.8 5.451h2.356c.035-.217.056-.442.056-.673v-.007a4.208 4.208 0 0 0-.063-.666zm-2.973.681c0 .301-.056.589-.154.855a2.47 2.47 0 0 1-1.71 0 2.47 2.47 0 0 1-.154-.855v-.007c0-.301.056-.589.154-.855a2.47 2.47 0 0 1 1.71 0c.098.266.154.554.154.862z"/>
    </symbol>
    <symbol id="icon-logo-2" viewBox="0 0 32 32">
      <path d="M4 0h24a4 4 0 0 1 4 4v24a4 4 0 0 1-4 4H4a4 4 0 0 1-4-4V4a4 4 0 0 1 4-4z"/>
      <path d="M5.832 9.98 16 16v11.493L5.832 21.655V9.98z"/>
      <path d="M16.897 15.992v9.948l8.374-4.808V11.034l-8.374 4.958zm9.271 5.663L16 27.493V16L5.832 9.98 16 4.507 26.168 9.98v11.675zM24.8 10.266l-8.801-4.737-8.338 4.488 8.78 5.198 8.359-4.949z"/>
    </symbol>
    <symbol id="icon-Icon-13" viewBox="0 0 32 32">
      <path  d="M4 9c0-0.552 0.448-1 1-1h22c0.552 0 1 0.448 1 1s-0.448 1-1 1h-22c-0.552 0-1-0.448-1-1zM4 16c0-0.552 0.448-1 1-1h22c0.552 0 1 0.448 1 1s-0.448 1-1 1h-22c-0.552 0-1-0.448-1-1zM15 23c0-0.552 0.448-1 1-1h11c0.552 0 1 0.448 1 1s-0.448 1-1 1h-11c-0.552 0-1-0.448-1-1z"></path>
</symbol>
<symbol id="icon-SquareUp" viewBox="0 0 165 32">
<path fill="#fff" style="fill: var(--color1, #fff)" d="M9.306 1.905c4.618 0 8.116 2.513 8.999 6.554l-4.618 0.951c-0.34-2.139-2.207-3.532-4.483-3.532-2.309 0-3.702 1.29-3.702 2.819 0 1.155 0.509 1.97 2.275 2.309l4.89 0.985c3.702 0.781 5.977 2.988 5.977 6.52 0 4.415-3.634 7.166-9.033 7.166-4.754 0-8.931-2.208-9.509-6.758l4.856-0.985c0.611 2.581 2.513 3.702 5.094 3.702 2.649 0 4.041-1.256 4.041-2.886 0-1.29-0.611-2.072-2.649-2.479l-4.822-0.917c-2.717-0.577-5.977-2.072-5.977-6.52 0-4.075 3.328-6.928 8.66-6.928z"></path>
<path fill="#fff" style="fill: var(--color1, #fff)" d="M39.754 8.221v22.719h-4.483v-7.097c-1.426 1.154-3.294 1.834-5.603 1.834-4.313 0-8.32-3.634-8.32-8.965s4.007-8.999 8.32-8.999c2.309 0 4.177 0.679 5.603 1.868v-1.358h4.483zM30.449 21.771c2.411 0 4.822-1.936 4.822-5.060s-2.411-5.094-4.822-5.094c-2.717 0-4.754 1.97-4.754 5.094s2.038 5.060 4.754 5.060z"></path>
<path fill="#fff" style="fill: var(--color1, #fff)" d="M60.494 8.221v16.946h-4.483v-1.528c-1.324 1.325-3.090 2.038-5.332 2.038-4.075 0-6.792-2.921-6.792-7.132v-10.324h4.483v9.373c0 2.377 1.358 3.973 3.43 3.973 2.547 0 4.211-1.698 4.211-5.841v-7.505h4.483z"></path>
<path fill="#fff" style="fill: var(--color1, #fff)" d="M82.303 8.221v16.946h-4.483v-1.324c-1.426 1.154-3.294 1.834-5.603 1.834-4.313 0-8.32-3.634-8.32-8.965s4.007-8.999 8.32-8.999c2.309 0 4.177 0.679 5.603 1.868v-1.358h4.483zM72.998 21.771c2.411 0 4.822-1.936 4.822-5.060s-2.411-5.094-4.822-5.094c-2.717 0-4.754 1.97-4.754 5.094s2.037 5.060 4.754 5.060z"></path>
<path fill="#fff" style="fill: var(--color1, #fff)" d="M97.605 7.983c0.441 0 0.781 0 1.189 0.136l-0.238 4.313h-0.985c-4.143 0-6.045 2.547-6.045 7.267v5.467h-4.483v-16.946h4.483v3.090c1.358-1.97 3.328-3.328 6.079-3.328z"></path>
<path fill="#fff" style="fill: var(--color1, #fff)" d="M117.431 16.371v1.528h-12.904c0.441 2.445 2.174 3.939 4.245 3.939 1.325 0 2.989-0.17 4.211-2.241l4.007 0.849c-1.494 3.532-4.517 5.23-8.218 5.23-4.788 0-8.694-3.634-8.694-8.965s3.905-8.999 8.762-8.999c4.517 0 8.422 3.498 8.592 8.66zM108.84 11.617c-1.698 0-3.634 1.019-4.177 3.124h8.184c-0.577-2.173-2.207-3.124-4.007-3.124z"></path>
<path fill="#fff" style="fill: var(--color1, #fff)" d="M140.431 2.414v12.565c0 6.384-3.905 10.697-9.78 10.697-6.011 0-10.018-4.313-10.018-10.697v-12.565h4.618v12.565c0 3.803 2.139 6.282 5.399 6.282 3.090 0 5.162-2.479 5.162-6.282v-12.565h4.619z"></path>
<path fill="#fff" style="fill: var(--color1, #fff)" d="M155.066 7.712c4.313 0 8.32 3.668 8.32 8.999s-4.007 8.965-8.32 8.965c-2.309 0-4.177-0.679-5.603-1.834v7.097h-4.483v-22.719h4.483v1.358c1.426-1.189 3.294-1.868 5.603-1.868zM154.285 21.771c2.717 0 4.754-1.936 4.754-5.060s-2.037-5.094-4.754-5.094c-2.411 0-4.822 1.97-4.822 5.094s2.411 5.060 4.822 5.060z"></path>
</symbol>
<symbol id="icon-cub" viewBox="0 0 28 32">
<path d="M0.345 7.973l13.621 8.027v15.324l-13.621-7.784v-15.567z"></path>
<path d="M15.169 15.989v13.264l11.217-6.41v-13.464l-11.217 6.61zM27.588 23.54l-13.621 7.784v-15.324l-13.621-8.027 13.621-7.297 13.621 7.297v15.567zM25.756 8.355l-11.789-6.316-11.169 5.984 11.761 6.931 11.198-6.598z"></path>
</symbol>
<symbol id="icon-burger" viewBox="0 0 32 32">
 <path d="M4 9c0-0.552 0.448-1 1-1h22c0.552 0 1 0.448 1 1s-0.448 1-1 1h-22c-0.552 0-1-0.448-1-1zM4 16c0-0.552 0.448-1 1-1h22c0.552 0 1 0.448 1 1s-0.448 1-1 1h-22c-0.552 0-1-0.448-1-1zM15 23c0-0.552 0.448-1 1-1h11c0.552 0 1 0.448 1 1s-0.448 1-1 1h-11c-0.552 0-1-0.448-1-1z"></path>
</symbol>
  </defs>
</svg>
